<?xml version="1.0" encoding="UTF-8"?>
<svg xmlns="http://www.w3.org/2000/svg" width="80" height="80" viewBox="0 0 80 80" fill="none">
  <path fill-rule="evenodd" clip-rule="evenodd" d="M40 10C29.5 10 21 18.5 21 29C21 29.7 21.0 30.3 21.1 31H21C15.5 31 11 35.5 11 41C11 46.5 15.5 51 21 51H59C64.5 51 69 46.5 69 41C69 35.5 64.5 31 59 31H58.9C58.97 30.3 59 29.7 59 29C59 18.5 50.5 10 40 10Z" fill="#2563EB" stroke="#2563EB" stroke-width="2"/>
  <path fill-rule="evenodd" clip-rule="evenodd" d="M40 70C45.5228 70 50 65.5228 50 60C50 54.4772 45.5228 50 40 50C34.4772 50 30 54.4772 30 60C30 65.5228 34.4772 70 40 70Z" fill="#1E40AF"/>
  <path fill-rule="evenodd" clip-rule="evenodd" d="M30 30C35.5228 30 40 25.5228 40 20C40 14.4772 35.5228 10 30 10C24.4772 10 20 14.4772 20 20C20 25.5228 24.4772 30 30 30Z" fill="#3B82F6"/>
  <path fill-rule="evenodd" clip-rule="evenodd" d="M55 45C60.5228 45 65 40.5228 65 35C65 29.4772 60.5228 25 55 25C49.4772 25 45 29.4772 45 35C45 40.5228 49.4772 45 55 45Z" fill="#60A5FA"/>
</svg>