<?xml version="1.0" encoding="UTF-8" standalone="no"?>
<svg xmlns="http://www.w3.org/2000/svg" viewBox="0 0 400 150" width="100%" height="100%">
  <defs>
    <linearGradient id="gradient" x1="0%" y1="0%" x2="100%" y2="0%">
      <stop offset="0%" style="stop-color:#0047AB;stop-opacity:1" />
      <stop offset="50%" style="stop-color:#00CED1;stop-opacity:1" />
      <stop offset="100%" style="stop-color:#32CD32;stop-opacity:1" />
    </linearGradient>
  </defs>
  <g fill="url(#gradient)">
    <path d="M30,40 L100,40 L30,110 L100,110 M130,40 L160,40 L160,110 M130,40 L180,40 M130,75 L170,75 M130,110 L180,110 M210,40 L250,40 L270,75 L290,40 L330,40 L290,110 L270,75 L250,110 L210,110 M350,40 L370,60 L350,80 M350,70 L390,110 M390,40 L390,50 M395,60 A5,5 0 1 1 395,70" />
  </g>
</svg>